<svg xmlns="http://www.w3.org/2000/svg" viewBox="0 0 1200 800" role="img" aria-label="Airbnb Cabin — alternate setting render">
  <defs>
    <linearGradient id="sky" x1="0" y1="0" x2="0" y2="1">
      <stop offset="0" stop-color="#0E2440"/><stop offset="0.55" stop-color="#1B3A5F"/><stop offset="1" stop-color="#3E5E7E"/>
    </linearGradient>
    <radialGradient id="glow" cx="0.72" cy="0.35" r="0.55">
      <stop offset="0" stop-color="#D6AF5E" stop-opacity="0.4"/><stop offset="1" stop-color="#D6AF5E" stop-opacity="0"/>
    </radialGradient>
    <linearGradient id="h1" x1="0" y1="0" x2="0" y2="1"><stop offset="0" stop-color="#122C4C"/><stop offset="1" stop-color="#0B1E36"/></linearGradient>
    <linearGradient id="h2" x1="0" y1="0" x2="0" y2="1"><stop offset="0" stop-color="#183A60"/><stop offset="1" stop-color="#102A48"/></linearGradient>
    <linearGradient id="wall" x1="0" y1="0" x2="0" y2="1"><stop offset="0" stop-color="#233F60"/><stop offset="1" stop-color="#16304F"/></linearGradient>
    <linearGradient id="warm" x1="0" y1="0" x2="0" y2="1"><stop offset="0" stop-color="#F5D488"/><stop offset="1" stop-color="#D6AF5E"/></linearGradient>
  </defs>
  <rect width="1200" height="800" fill="url(#sky)"/>
  <rect width="1200" height="800" fill="url(#glow)"/>
  <circle cx="880" cy="200" r="42" fill="#F0CE84" opacity="0.9"/>
  <circle cx="880" cy="200" r="66" fill="#F0CE84" opacity="0.16"/>
  <g fill="#E8EEF5" opacity="0.65">
        <circle cx="150" cy="110" r="2"/><circle cx="340" cy="70" r="1.6"/><circle cx="540" cy="140" r="1.8"/>
        <circle cx="720" cy="80" r="1.4"/><circle cx="1040" cy="120" r="2"/><circle cx="1130" cy="230" r="1.5"/>
        <circle cx="250" cy="220" r="1.4"/><circle cx="950" cy="60" r="1.7"/>
      </g>
  <path d="M0 520 Q 220 440 460 505 T 920 490 T 1200 520 V 800 H 0 Z" fill="url(#h1)"/>
  <path d="M0 590 Q 320 525 640 578 T 1200 570 V 800 H 0 Z" fill="url(#h2)"/>

  <!-- home -->
  <g>
    <path d="M329 454 L 600 412 L 871 454 L 871 472 L 329 472 Z" fill="#0A1B30"/>
    <rect x="351" y="470" width="498" height="170" rx="8" fill="url(#wall)"/>
    <rect x="355" y="482" width="114.42000000000002" height="158" rx="6" fill="#1C3A5E"/>
    <rect x="375" y="506" width="74.42000000000002" height="80" rx="5" fill="url(#warm)" opacity="0.92"/>
    <rect x="730.5799999999999" y="482" width="114.42000000000002" height="158" rx="6" fill="#1C3A5E"/>
    <rect x="750.5799999999999" y="506" width="74.42000000000002" height="66" rx="5" fill="url(#warm)" opacity="0.85"/>
    <rect x="495.42" y="488" width="209.16" height="152" rx="5" fill="url(#warm)"/>
    <g stroke="#0F2743" stroke-width="6">
      <line x1="565.14" y1="488" x2="565.14" y2="640"/>
      <line x1="634.86" y1="488" x2="634.86" y2="640"/>
    </g>
    <rect x="331" y="640" width="538" height="14" rx="4" fill="#6B5430"/>
    <path d="M465.42 654 L 734.58 654 L 784.58 710 L 415.42 710 Z" fill="url(#warm)" opacity="0.13"/>
  </g>

  <path d="M0 700 Q 300 672 640 696 T 1200 688 V 800 H 0 Z" fill="#0A1A2E"/>
</svg>
